<svg width="140" height="31" viewBox="0 0 140 31" fill="none" xmlns="http://www.w3.org/2000/svg">
<path d="M0.201705 30V0.90909H20.0597V6.61932H7.23295V12.5852H18.7955V18.3097H7.23295V30H0.201705ZM30.5462 0.90909V30H23.6001V0.90909H30.5462ZM41.1179 30.3693C39.7259 30.3693 38.4901 30.1373 37.4105 29.6733C36.3404 29.1998 35.4929 28.4896 34.8679 27.5426C34.2524 26.5862 33.9446 25.3883 33.9446 23.9489C33.9446 22.7367 34.1577 21.714 34.5838 20.8807C35.0099 20.0473 35.5971 19.3703 36.3452 18.8494C37.0933 18.3286 37.955 17.9356 38.9304 17.6705C39.9058 17.3958 40.9474 17.2112 42.0554 17.1165C43.2959 17.0028 44.295 16.8845 45.0526 16.7614C45.8101 16.6288 46.3594 16.4441 46.7003 16.2074C47.0507 15.9612 47.2259 15.6155 47.2259 15.1705V15.0994C47.2259 14.3703 46.9749 13.8068 46.473 13.4091C45.9711 13.0114 45.294 12.8125 44.4418 12.8125C43.5232 12.8125 42.7846 13.0114 42.2259 13.4091C41.6671 13.8068 41.312 14.3561 41.1605 15.0568L34.7543 14.8295C34.9437 13.5038 35.4313 12.3201 36.2173 11.2784C37.0128 10.2273 38.1018 9.40341 39.4844 8.80682C40.8764 8.20076 42.5478 7.89773 44.4986 7.89773C45.8906 7.89773 47.1738 8.06345 48.348 8.39489C49.5223 8.71686 50.545 9.19034 51.4162 9.81534C52.2874 10.4309 52.9598 11.1884 53.4332 12.0881C53.9162 12.9877 54.1577 14.0152 54.1577 15.1705V30H47.6236V26.9602H47.4531C47.0649 27.6989 46.5677 28.3239 45.9616 28.8352C45.3651 29.3466 44.6596 29.7301 43.8452 29.9858C43.0402 30.2415 42.1312 30.3693 41.1179 30.3693ZM43.2628 25.8239C44.0109 25.8239 44.6832 25.6723 45.2798 25.3693C45.8859 25.0663 46.3688 24.6496 46.7287 24.1193C47.0885 23.5795 47.2685 22.9545 47.2685 22.2443V20.1705C47.0696 20.2746 46.8281 20.3693 46.544 20.4545C46.2694 20.5398 45.9664 20.6203 45.6349 20.696C45.3035 20.7718 44.9626 20.8381 44.6122 20.8949C44.2618 20.9517 43.9257 21.0038 43.6037 21.0511C42.9503 21.1553 42.3916 21.3163 41.9276 21.5341C41.473 21.7519 41.1226 22.036 40.8764 22.3864C40.6397 22.7273 40.5213 23.1345 40.5213 23.608C40.5213 24.3277 40.777 24.8769 41.2884 25.2557C41.8092 25.6345 42.4673 25.8239 43.2628 25.8239ZM65.3509 17.5568V30H58.4048V8.18182H65.0099V12.1875H65.2514C65.7344 10.8523 66.5582 9.80587 67.723 9.0483C68.8878 8.28125 70.2751 7.89773 71.8849 7.89773C73.419 7.89773 74.7495 8.24337 75.8764 8.93466C77.0128 9.61648 77.8935 10.5729 78.5185 11.804C79.1529 13.0256 79.4654 14.4555 79.456 16.0938V30H72.5099V17.4574C72.5194 16.2453 72.2116 15.2983 71.5866 14.6165C70.9711 13.9347 70.1141 13.5938 69.0156 13.5938C68.2865 13.5938 67.6425 13.7547 67.0838 14.0767C66.5346 14.3892 66.1084 14.839 65.8054 15.4261C65.5118 16.0133 65.3603 16.7235 65.3509 17.5568ZM93.9411 30.4119C91.6399 30.4119 89.6655 29.9384 88.0178 28.9915C86.3795 28.0445 85.12 26.7282 84.2393 25.0426C83.3587 23.3475 82.9183 21.3873 82.9183 19.1619C82.9183 16.9271 83.3587 14.9669 84.2393 13.2812C85.1295 11.5862 86.3937 10.2652 88.032 9.31818C89.6797 8.37121 91.6446 7.89773 93.9268 7.89773C95.9439 7.89773 97.7005 8.26231 99.1967 8.99148C100.702 9.72064 101.877 10.7528 102.719 12.0881C103.572 13.4138 104.022 14.9716 104.069 16.7614H97.5774C97.4448 15.6439 97.0661 14.768 96.4411 14.1335C95.8255 13.4991 95.0206 13.1818 94.0263 13.1818C93.2214 13.1818 92.5159 13.4091 91.9098 13.8636C91.3037 14.3087 90.8303 14.9716 90.4893 15.8523C90.1579 16.7235 89.9922 17.803 89.9922 19.0909C89.9922 20.3788 90.1579 21.4678 90.4893 22.358C90.8303 23.2386 91.3037 23.9062 91.9098 24.3608C92.5159 24.8059 93.2214 25.0284 94.0263 25.0284C94.6702 25.0284 95.2384 24.8911 95.7308 24.6165C96.2327 24.3419 96.6446 23.9394 96.9666 23.4091C97.2886 22.8693 97.4922 22.2159 97.5774 21.4489H104.069C104.003 23.2481 103.553 24.8201 102.719 26.1648C101.896 27.5095 100.736 28.5559 99.2393 29.304C97.7526 30.0426 95.9865 30.4119 93.9411 30.4119ZM117.822 30.4119C115.54 30.4119 113.571 29.9621 111.913 29.0625C110.266 28.1534 108.997 26.8608 108.107 25.1847C107.226 23.4991 106.786 21.4962 106.786 19.1761C106.786 16.9223 107.231 14.9527 108.121 13.267C109.011 11.572 110.266 10.2557 111.885 9.31818C113.504 8.37121 115.412 7.89773 117.609 7.89773C119.162 7.89773 120.583 8.1392 121.871 8.62216C123.159 9.10511 124.271 9.82008 125.209 10.767C126.146 11.714 126.875 12.8835 127.396 14.2756C127.917 15.6581 128.178 17.2443 128.178 19.0341V20.767H109.214V16.733H121.714C121.705 15.9943 121.53 15.3362 121.189 14.7585C120.848 14.1809 120.379 13.7311 119.783 13.4091C119.196 13.0777 118.518 12.9119 117.751 12.9119C116.975 12.9119 116.279 13.0871 115.663 13.4375C115.048 13.7784 114.56 14.2472 114.2 14.8438C113.84 15.4309 113.651 16.0985 113.632 16.8466V20.9517C113.632 21.8419 113.807 22.6231 114.158 23.2955C114.508 23.9583 115.005 24.4744 115.649 24.8438C116.293 25.2131 117.06 25.3977 117.95 25.3977C118.566 25.3977 119.125 25.3125 119.626 25.142C120.128 24.9716 120.559 24.7206 120.919 24.3892C121.279 24.0578 121.549 23.6506 121.729 23.1676L128.107 23.3523C127.841 24.7822 127.259 26.0275 126.359 27.0881C125.469 28.1392 124.3 28.9583 122.851 29.5455C121.402 30.1231 119.726 30.4119 117.822 30.4119Z" fill="url(#paint0_linear_178_1669)"/>
<path d="M135.631 30.4119C134.609 30.4119 133.733 30.0521 133.004 29.3324C132.284 28.6127 131.929 27.7415 131.938 26.7188C131.929 25.715 132.284 24.858 133.004 24.1477C133.733 23.428 134.609 23.0682 135.631 23.0682C136.597 23.0682 137.45 23.428 138.188 24.1477C138.936 24.858 139.315 25.715 139.325 26.7188C139.315 27.4006 139.135 28.0208 138.785 28.5795C138.444 29.1383 137.994 29.5833 137.435 29.9148C136.886 30.2462 136.285 30.4119 135.631 30.4119Z" fill="#E07356"/>
<defs>
<linearGradient id="paint0_linear_178_1669" x1="-2" y1="15" x2="142" y2="15" gradientUnits="userSpaceOnUse">
<stop stop-color="#2B313F"/>
<stop offset="1" stop-color="#43597E"/>
</linearGradient>
</defs>
</svg>
