<svg width="209" height="45" viewBox="0 0 209 45" fill="none" xmlns="http://www.w3.org/2000/svg">
<path d="M0.302557 44V0.363635H30.0895V8.92898H10.8494V17.8778H28.1932V26.4645H10.8494V44H0.302557ZM45.8192 0.363635V44H35.4002V0.363635H45.8192ZM61.6768 44.554C59.5888 44.554 57.7351 44.206 56.1158 43.5099C54.5107 42.7997 53.2393 41.7344 52.3018 40.3139C51.3786 38.8793 50.9169 37.0824 50.9169 34.9233C50.9169 33.1051 51.2365 31.571 51.8757 30.321C52.5149 29.071 53.3956 28.0554 54.5178 27.2741C55.6399 26.4929 56.9325 25.9034 58.3956 25.5057C59.8587 25.0937 61.4212 24.8168 63.0831 24.6747C64.9439 24.5043 66.4425 24.3267 67.5788 24.142C68.7152 23.9432 69.5391 23.6662 70.0504 23.3111C70.576 22.9418 70.8388 22.4233 70.8388 21.7557V21.6491C70.8388 20.5554 70.4624 19.7102 69.7095 19.1136C68.9567 18.517 67.9411 18.2188 66.6626 18.2188C65.2848 18.2188 64.1768 18.517 63.3388 19.1136C62.5007 19.7102 61.968 20.5341 61.7408 21.5852L52.1314 21.2443C52.4155 19.2557 53.147 17.4801 54.326 15.9176C55.5192 14.3409 57.1527 13.1051 59.2266 12.2102C61.3146 11.3011 63.8217 10.8466 66.7479 10.8466C68.8359 10.8466 70.7607 11.0952 72.522 11.5923C74.2834 12.0753 75.8175 12.7855 77.1243 13.723C78.4311 14.6463 79.4396 15.7827 80.1499 17.1321C80.8743 18.4815 81.2365 20.0227 81.2365 21.7557V44H71.4354V39.4403H71.1797C70.5973 40.5483 69.8516 41.4858 68.9425 42.2528C68.0476 43.0199 66.9893 43.5952 65.7678 43.9787C64.5604 44.3622 63.1967 44.554 61.6768 44.554ZM64.8942 37.7358C66.0163 37.7358 67.0249 37.5085 67.9197 37.054C68.8288 36.5994 69.5533 35.9744 70.093 35.179C70.6328 34.3693 70.9027 33.4318 70.9027 32.3665V29.2557C70.6044 29.4119 70.2422 29.554 69.8161 29.6818C69.4041 29.8097 68.9496 29.9304 68.4524 30.044C67.9553 30.1577 67.4439 30.2571 66.9183 30.3423C66.3928 30.4276 65.8885 30.5057 65.4055 30.5767C64.4254 30.733 63.5874 30.9744 62.8913 31.3011C62.2095 31.6278 61.6839 32.054 61.3146 32.5795C60.9595 33.0909 60.782 33.7017 60.782 34.4119C60.782 35.4915 61.1655 36.3153 61.9325 36.8835C62.7138 37.4517 63.701 37.7358 64.8942 37.7358ZM98.0263 25.3352V44H87.6072V11.2727H97.5149V17.2812H97.8771C98.6016 15.2784 99.8374 13.7088 101.585 12.5724C103.332 11.4219 105.413 10.8466 107.827 10.8466C110.129 10.8466 112.124 11.3651 113.815 12.402C115.519 13.4247 116.84 14.8594 117.778 16.706C118.729 18.5384 119.198 20.6832 119.184 23.1406V44H108.765V25.1861C108.779 23.3679 108.317 21.9474 107.38 20.9247C106.457 19.902 105.171 19.3906 103.523 19.3906C102.43 19.3906 101.464 19.6321 100.626 20.1151C99.8018 20.5838 99.1626 21.2585 98.7081 22.1392C98.2678 23.0199 98.0405 24.0852 98.0263 25.3352ZM140.912 44.6179C137.46 44.6179 134.498 43.9077 132.027 42.4872C129.569 41.0668 127.68 39.0923 126.359 36.5639C125.038 34.0213 124.377 31.081 124.377 27.7429C124.377 24.3906 125.038 21.4503 126.359 18.9219C127.694 16.3793 129.591 14.3977 132.048 12.9773C134.52 11.5568 137.467 10.8466 140.89 10.8466C143.916 10.8466 146.551 11.3935 148.795 12.4872C151.054 13.581 152.815 15.1293 154.079 17.1321C155.358 19.1207 156.032 21.4574 156.103 24.142H146.366C146.167 22.4659 145.599 21.152 144.662 20.2003C143.738 19.2486 142.531 18.7727 141.039 18.7727C139.832 18.7727 138.774 19.1136 137.865 19.7955C136.956 20.4631 136.245 21.4574 135.734 22.7784C135.237 24.0852 134.988 25.7045 134.988 27.6364C134.988 29.5682 135.237 31.2017 135.734 32.5369C136.245 33.858 136.956 34.8594 137.865 35.5412C138.774 36.2088 139.832 36.5426 141.039 36.5426C142.005 36.5426 142.858 36.3366 143.596 35.9247C144.349 35.5128 144.967 34.9091 145.45 34.1136C145.933 33.304 146.238 32.3239 146.366 31.1733H156.103C156.004 33.8722 155.329 36.2301 154.079 38.2472C152.843 40.2642 151.103 41.8338 148.859 42.956C146.629 44.0639 143.98 44.6179 140.912 44.6179ZM176.734 44.6179C173.31 44.6179 170.356 43.9432 167.87 42.5938C165.398 41.2301 163.495 39.2912 162.16 36.777C160.839 34.2486 160.178 31.2443 160.178 27.7642C160.178 24.3835 160.846 21.429 162.181 18.9006C163.516 16.358 165.398 14.3835 167.827 12.9773C170.256 11.5568 173.119 10.8466 176.414 10.8466C178.744 10.8466 180.874 11.2088 182.806 11.9332C184.738 12.6577 186.407 13.7301 187.813 15.1506C189.219 16.571 190.313 18.3253 191.094 20.4134C191.876 22.4872 192.266 24.8665 192.266 27.5511V30.1506H163.822V24.0994H182.572C182.558 22.9915 182.295 22.0043 181.783 21.1378C181.272 20.2713 180.569 19.5966 179.674 19.1136C178.793 18.6165 177.778 18.3679 176.627 18.3679C175.462 18.3679 174.418 18.6307 173.495 19.1562C172.572 19.6676 171.84 20.3707 171.3 21.2656C170.761 22.1463 170.477 23.1477 170.448 24.2699V30.4276C170.448 31.7628 170.711 32.9347 171.237 33.9432C171.762 34.9375 172.508 35.7116 173.474 36.2656C174.44 36.8196 175.59 37.0966 176.925 37.0966C177.849 37.0966 178.687 36.9687 179.44 36.7131C180.192 36.4574 180.839 36.081 181.379 35.5838C181.918 35.0866 182.323 34.4759 182.593 33.7514L192.16 34.0284C191.762 36.1733 190.888 38.0412 189.539 39.6321C188.204 41.2088 186.45 42.4375 184.276 43.3182C182.103 44.1847 179.589 44.6179 176.734 44.6179Z" fill="white"/>
<path d="M203.447 44.6179C201.913 44.6179 200.599 44.0781 199.505 42.9986C198.426 41.919 197.893 40.6122 197.907 39.0781C197.893 37.5724 198.426 36.2869 199.505 35.2216C200.599 34.142 201.913 33.6023 203.447 33.6023C204.896 33.6023 206.174 34.142 207.282 35.2216C208.404 36.2869 208.973 37.5724 208.987 39.0781C208.973 40.1009 208.703 41.0312 208.177 41.8693C207.666 42.7074 206.991 43.375 206.153 43.8722C205.329 44.3693 204.427 44.6179 203.447 44.6179Z" fill="#E07356"/>
</svg>
