<svg width="129" height="135" viewBox="0 0 129 135" fill="none" xmlns="http://www.w3.org/2000/svg">
<path d="M1 128.088C1.49116 128.58 6.52558 131.567 8.9814 133L17.5767 128.088" stroke="#2B313F" stroke-width="2" stroke-linecap="round"/>
<path d="M21.2604 102.916C18.1906 103.94 11.1916 107.46 7.75342 113.353" stroke="#2B313F" stroke-width="2" stroke-linecap="round"/>
<path d="M80.2 1C85.3162 17.5767 101.934 54.6595 127.474 70.3767" stroke="#2B313F" stroke-width="2" stroke-linecap="round"/>
<path d="M127.723 71.3491C92.5229 54.1584 25.1927 37.3361 37.4718 107.572" stroke="#2B313F" stroke-width="2" stroke-linecap="round"/>
<path d="M37.2233 105.372C38.0419 110.079 41.6438 119.984 49.5024 121.949C57.361 123.913 54.414 116.219 51.9582 112.126C50.1163 109.874 42.7489 105.863 28.014 107.828C13.2791 109.793 9.1861 124.609 8.98145 131.772" stroke="#2B313F" stroke-width="2" stroke-linecap="round"/>
</svg>
