<svg width="49" height="47" viewBox="0 0 49 47" fill="none" xmlns="http://www.w3.org/2000/svg">
<path d="M32.2025 29.3771L27.4001 44.376L22.5953 29.3749L8.2001 24.3684L22.4849 18.9716L27.4001 3.28329L32.3153 18.9716L46.6001 24.3684L32.2025 29.3771Z" stroke="#263238" stroke-width="4" stroke-linejoin="round"/>
<path d="M7.99595 15.6699C8.00189 15.7171 8.02605 15.7605 8.06375 15.7917C8.10144 15.823 8.14998 15.8397 8.19995 15.8388C8.24992 15.8397 8.29846 15.823 8.33615 15.7917C8.37385 15.7605 8.39801 15.7171 8.40395 15.6699C8.88155 11.1177 9.23195 9.78679 14.0152 9.3576C14.065 9.35416 14.1117 9.333 14.146 9.29832C14.1802 9.26364 14.1995 9.21798 14.2 9.1704C14.2 9.07224 14.1208 8.99233 14.0152 8.9832C9.29915 8.56086 8.88875 6.9377 8.40395 2.31021C8.3975 2.26321 8.3732 2.22008 8.33561 2.18895C8.29803 2.15783 8.24978 2.14087 8.19995 2.14127C8.09435 2.14127 8.00795 2.21432 7.99595 2.31021C7.51115 6.9377 7.10315 8.56086 2.38475 8.9832C2.33487 8.98664 2.28817 9.0078 2.25393 9.04248C2.21969 9.07716 2.20042 9.12283 2.19995 9.1704C2.20042 9.21798 2.21969 9.26364 2.25393 9.29832C2.28817 9.333 2.33487 9.35416 2.38475 9.3576C7.16795 9.78679 7.52075 11.1155 7.99595 15.6699V15.6699Z" stroke="#263238" stroke-width="4"/>
</svg>
