<svg width="194" height="47" viewBox="0 0 194 47" fill="none" xmlns="http://www.w3.org/2000/svg">
<path d="M190.843 0.50824C191.667 0.421527 192.405 1.01912 192.492 1.84299L193.905 15.2688C193.992 16.0927 193.394 16.8309 192.57 16.9176C191.746 17.0043 191.008 16.4067 190.921 15.5828L189.665 3.64877L177.731 4.90483C176.907 4.99155 176.169 4.39396 176.082 3.57008C175.996 2.7462 176.593 2.00803 177.417 1.92131L190.843 0.50824ZM192.166 2.94381C171.854 28.0342 105.333 68.293 0.509216 31.9978L1.49078 29.163C105.196 65.0709 170.366 25.1041 189.834 1.05619L192.166 2.94381Z" fill="#263238"/>
</svg>
