<svg width="185" height="46" viewBox="0 0 185 46" fill="none" xmlns="http://www.w3.org/2000/svg">
<path d="M184.858 30.137C185.21 29.3869 184.887 28.4937 184.137 28.142L171.915 22.4093C171.165 22.0575 170.271 22.3804 169.92 23.1304C169.568 23.8804 169.891 24.7736 170.641 25.1254L181.505 30.2211L176.409 41.0854C176.058 41.8355 176.38 42.7287 177.13 43.0804C177.88 43.4322 178.774 43.1094 179.125 42.3594L184.858 30.137ZM0.81467 1.91924C20.2268 26.9506 83.8189 67.1243 184.01 30.9107L182.99 28.0893C83.9811 63.8757 21.7732 24.0494 3.18533 0.0807647L0.81467 1.91924Z" fill="#263238"/>
</svg>
