<svg width="139" height="139" viewBox="0 0 139 139" fill="none" xmlns="http://www.w3.org/2000/svg">
<circle cx="69.5" cy="69.5" r="69.5" fill="#C1DBE0"/>
<path d="M85.3333 53.6667H83V58.3333H76V53.6667H62V58.3333H55V53.6667H52.6667C50.0977 53.6667 48 55.7667 48 58.3333V86.3333C48 88.9 50.0977 91 52.6667 91H85.3333C87.9 91 90 88.9 90 86.3333V58.3333C90 55.7667 87.9 53.6667 85.3333 53.6667ZM85.3333 86.3333H52.6667V67.6667H85.3333V86.3333ZM60.8333 49H56.1667V57.1667H60.8333V49ZM81.8333 49H77.1667V57.1667H81.8333V49Z" fill="#263238" fill-opacity="0.8"/>
<path fill-rule="evenodd" clip-rule="evenodd" d="M87 81C80.925 81 76 85.925 76 92C76 98.075 80.925 103 87 103C93.075 103 98 98.075 98 92C98 85.925 93.075 81 87 81ZM91.768 90.14C91.8558 90.0396 91.9226 89.9227 91.9646 89.7962C92.0065 89.6696 92.0227 89.5359 92.0123 89.403C92.0018 89.2701 91.9648 89.1406 91.9036 89.0221C91.8423 88.9037 91.758 88.7987 91.6555 88.7133C91.5531 88.628 91.4346 88.564 91.3071 88.5251C91.1796 88.4862 91.0455 88.4732 90.9129 88.4868C90.7802 88.5005 90.6517 88.5405 90.5347 88.6046C90.4178 88.6687 90.3149 88.7555 90.232 88.86L85.932 94.019L83.707 91.793C83.5184 91.6108 83.2658 91.51 83.0036 91.5123C82.7414 91.5146 82.4906 91.6198 82.3052 91.8052C82.1198 91.9906 82.0146 92.2414 82.0123 92.5036C82.01 92.7658 82.1108 93.0184 82.293 93.207L85.293 96.207C85.3913 96.3052 85.5089 96.3818 85.6384 96.4321C85.7679 96.4823 85.9065 96.505 86.0453 96.4986C86.184 96.4923 86.32 96.4572 86.4444 96.3954C86.5688 96.3337 86.6791 96.2467 86.768 96.14L91.768 90.14Z" fill="#263238"/>
</svg>
