<svg width="154" height="154" viewBox="0 0 154 154" fill="none" xmlns="http://www.w3.org/2000/svg">
<circle cx="77" cy="77" r="77" fill="#C1DBE0"/>
<path d="M63.75 93C63.75 93 61 93 61 90.25C61 87.5 63.75 79.25 77.5 79.25C91.25 79.25 94 87.5 94 90.25C94 93 91.25 93 91.25 93H63.75ZM77.5 76.5C79.688 76.5 81.7865 75.6308 83.3336 74.0836C84.8808 72.5365 85.75 70.438 85.75 68.25C85.75 66.062 84.8808 63.9635 83.3336 62.4164C81.7865 60.8692 79.688 60 77.5 60C75.312 60 73.2135 60.8692 71.6664 62.4164C70.1192 63.9635 69.25 66.062 69.25 68.25C69.25 70.438 70.1192 72.5365 71.6664 74.0836C73.2135 75.6308 75.312 76.5 77.5 76.5Z" fill="#263238" fill-opacity="0.9"/>
<path d="M107 105L100.5 99M105.579 76.2895C105.579 83.5271 102.704 90.4683 97.586 95.586C92.4683 100.704 85.5271 103.579 78.2895 103.579C71.0519 103.579 64.1107 100.704 58.9929 95.586C53.8751 90.4683 51 83.5271 51 76.2895C51 69.0519 53.8751 62.1107 58.9929 56.9929C64.1107 51.8751 71.0519 49 78.2895 49C85.5271 49 92.4683 51.8751 97.586 56.9929C102.704 62.1107 105.579 69.0519 105.579 76.2895Z" stroke="#263238" stroke-width="2" stroke-linecap="round"/>
</svg>
