<svg width="139" height="139" viewBox="0 0 139 139" fill="none" xmlns="http://www.w3.org/2000/svg">
<circle cx="69.5" cy="69.5" r="69.5" fill="#C1DBE0"/>
<path d="M68 68.5L63.0091 62.7871L63.7045 55.2314L56.3205 53.5524L52.4545 47L45.5 49.9895L38.5455 47L34.6795 53.5319L27.2955 55.1905L27.9909 62.7667L23 68.5L27.9909 74.2129L27.2955 81.789L34.6795 83.4681L38.5455 90L45.5 86.99L52.4545 89.9795L56.3205 83.4476L63.7045 81.7686L63.0091 74.2129L68 68.5ZM40.1409 76.711L35.2727 71.7967C35.0831 71.6072 34.9327 71.3822 34.83 71.1345C34.7274 70.8868 34.6745 70.6213 34.6745 70.3531C34.6745 70.0849 34.7274 69.8194 34.83 69.5717C34.9327 69.324 35.0831 69.099 35.2727 68.9095L35.4159 68.7662C36.2136 67.9676 37.5227 67.9676 38.3205 68.7662L41.6136 72.0833L52.1477 61.5176C52.9455 60.719 54.2545 60.719 55.0523 61.5176L55.1955 61.661C55.9932 62.4595 55.9932 63.7495 55.1955 64.5481L43.0864 76.711C42.2477 77.5095 40.9591 77.5095 40.1409 76.711Z" fill="#263238"/>
<path d="M76 56H105" stroke="#263238" stroke-opacity="0.8" stroke-width="5" stroke-linecap="round"/>
<path d="M76 67H117.5" stroke="#263238" stroke-opacity="0.8" stroke-width="5" stroke-linecap="round"/>
<path d="M76 79H103" stroke="#263238" stroke-opacity="0.8" stroke-width="5" stroke-linecap="round"/>
</svg>
