<svg width="57" height="57" viewBox="0 0 57 57" fill="none" xmlns="http://www.w3.org/2000/svg">
<circle cx="28.5" cy="28.5" r="28.5" fill="#8AD7FF"/>
<path d="M20.6667 38C20.6667 38 19 38 19 36.3333C19 34.6667 20.6667 29.6667 29 29.6667C37.3333 29.6667 39 34.6667 39 36.3333C39 38 37.3333 38 37.3333 38H20.6667ZM29 28C30.3261 28 31.5979 27.4732 32.5355 26.5355C33.4732 25.5979 34 24.3261 34 23C34 21.6739 33.4732 20.4021 32.5355 19.4645C31.5979 18.5268 30.3261 18 29 18C27.6739 18 26.4021 18.5268 25.4645 19.4645C24.5268 20.4021 24 21.6739 24 23C24 24.3261 24.5268 25.5979 25.4645 26.5355C26.4021 27.4732 27.6739 28 29 28Z" fill="#263238" fill-opacity="0.9"/>
</svg>
