<svg width="20" height="20" viewBox="0 0 20 20" fill="none" xmlns="http://www.w3.org/2000/svg">
<path fill-rule="evenodd" clip-rule="evenodd" d="M10 20C12.6522 20 15.1957 18.9464 17.0711 17.0711C18.9464 15.1957 20 12.6522 20 10C20 7.34784 18.9464 4.8043 17.0711 2.92893C15.1957 1.05357 12.6522 0 10 0C7.34784 0 4.8043 1.05357 2.92893 2.92893C1.05357 4.8043 0 7.34784 0 10C0 12.6522 1.05357 15.1957 2.92893 17.0711C4.8043 18.9464 7.34784 20 10 20ZM10.315 3.835C10.2441 3.79079 10.1647 3.76195 10.082 3.75033C9.99922 3.73871 9.91495 3.74457 9.83461 3.76754C9.75428 3.79051 9.67965 3.83008 9.61555 3.88368C9.55146 3.93729 9.49932 4.00374 9.4625 4.07875L7.9625 7.11875L4.6075 7.60625C4.49688 7.62195 4.39289 7.66836 4.30731 7.74019C4.22174 7.81202 4.15803 7.90641 4.1234 8.01264C4.08877 8.11886 4.08462 8.23267 4.11142 8.34113C4.13822 8.4496 4.19489 8.54837 4.275 8.62625L6.705 10.9913L6.13 14.3337C6.11105 14.4437 6.12327 14.5568 6.16529 14.6602C6.2073 14.7636 6.27743 14.8531 6.36772 14.9187C6.45801 14.9843 6.56486 15.0232 6.67617 15.0312C6.78748 15.0392 6.89879 15.0158 6.9975 14.9637L10 13.3862L13 14.9625C13.0987 15.0145 13.21 15.0379 13.3213 15.0299C13.4326 15.022 13.5395 14.983 13.6298 14.9174C13.7201 14.8519 13.7902 14.7623 13.8322 14.6589C13.8742 14.5555 13.8865 14.4425 13.8675 14.3325L13.295 10.9913L15.7225 8.625C15.8018 8.54696 15.8577 8.44838 15.8841 8.34033C15.9104 8.23227 15.9062 8.119 15.8718 8.01323C15.8374 7.90745 15.7742 7.81334 15.6894 7.74146C15.6045 7.66958 15.5012 7.62276 15.3912 7.60625L12.035 7.11875L10.535 4.07875C10.4859 3.97855 10.4097 3.89411 10.315 3.835Z" fill="#8AD7FF"/>
</svg>
